<svg width="32" height="32" viewBox="0 0 32 32" fill="none" xmlns="http://www.w3.org/2000/svg">
<path d="M16 29.3333C23.3638 29.3333 29.3333 23.3638 29.3333 16C29.3333 8.6362 23.3638 2.66667 16 2.66667C8.6362 2.66667 2.66666 8.6362 2.66666 16C2.66666 23.3638 8.6362 29.3333 16 29.3333Z" stroke="#030213" stroke-width="2.66667" stroke-linecap="round" stroke-linejoin="round"/>
<path d="M8 16C8 13.7333 8.93333 11.7333 10.4 10.4" stroke="#030213" stroke-width="2.66667" stroke-linecap="round" stroke-linejoin="round"/>
<path d="M16 18.6667C17.4728 18.6667 18.6667 17.4728 18.6667 16C18.6667 14.5272 17.4728 13.3333 16 13.3333C14.5272 13.3333 13.3333 14.5272 13.3333 16C13.3333 17.4728 14.5272 18.6667 16 18.6667Z" stroke="#030213" stroke-width="2.66667" stroke-linecap="round" stroke-linejoin="round"/>
<path d="M24 16C24 18.2667 23.0667 20.2667 21.6 21.6" stroke="#030213" stroke-width="2.66667" stroke-linecap="round" stroke-linejoin="round"/>
</svg>
